<svg id="Camada_1" data-name="Camada 1" xmlns="http://www.w3.org/2000/svg" viewBox="0 0 431 427"><defs><style>.cls-1{fill:#0070b4;}.cls-2{fill:#00406e;}</style></defs><title>brand_new</title><path class="cls-1" d="M299,260.18v0a156,156,0,1,0-50,49.52V310l.74-.73h0L324,336ZM165.5,273A96.5,96.5,0,1,1,262,176.5,96.49,96.49,0,0,1,165.5,273Z"/><rect class="cls-2" x="332.5" y="100.5" width="64" height="64"/><path class="cls-2" d="M246,323c1.91-1.16,72,24,72,24-10,10-60,58-154,60V344S208,346,246,323Z"/><path class="cls-2" d="M311.52,258.37c-1.14,1.92,24.66,71.77,24.66,71.77,9.91-10.09,57.45-60.53,58.59-154.54l-63,.58S334.17,220.16,311.52,258.37Z"/></svg>