<svg id="Camada_1" data-name="Camada 1" xmlns="http://www.w3.org/2000/svg" viewBox="0 0 431 427"><defs><style>.cls-1{fill:#c8c8c8;}.cls-2{fill:#fff;}</style></defs><title>brand_new</title><rect class="cls-1" x="342.5" y="101.5" width="64" height="64"/><path class="cls-1" d="M256,324c1.91-1.16,72,24,72,24-10,10-60,58-154,60V345S218,347,256,324Z"/><path class="cls-1" d="M321.52,259.37c-1.14,1.92,24.66,71.77,24.66,71.77,9.91-10.09,57.45-60.53,58.59-154.54l-63,.58S344.17,221.16,321.52,259.37Z"/><path class="cls-2" d="M67.61,230.43l-1,3.21L64.26,233l1-3.18a8.18,8.18,0,0,0-4.94.86,7.56,7.56,0,1,0,6.95,13.41c4.07-2.11,5.63-6.64,3.69-10.4A7.41,7.41,0,0,0,67.61,230.43Z"/><path class="cls-2" d="M309.49,262.18v0a156,156,0,1,0-50,49.52V312l.74-.73h0L334.5,338ZM176,275a96.5,96.5,0,1,1,96.5-96.5A96.49,96.49,0,0,1,176,275Z"/></svg>