<svg id="Camada_1" data-name="Camada 1" xmlns="http://www.w3.org/2000/svg" viewBox="0 0 431 427"><defs><style>.cls-1{fill:#0070b4;}.cls-2{fill:#00406e;}.cls-3,.cls-4{font-size:38.54px;font-family:ArialRoundedMTBold, Arial Rounded MT Bold;}.cls-3{fill:#0a4464;}.cls-4{fill:#fff;}</style></defs><title>brand_new</title><path class="cls-1" d="M330.49,276.68v0a156,156,0,1,0-50,49.52v.28l.74-.73h0L355.5,352.5ZM197,289.5A96.5,96.5,0,1,1,293.5,193,96.49,96.49,0,0,1,197,289.5Z"/><rect class="cls-2" x="364" y="117" width="64" height="64"/><path class="cls-2" d="M277.5,339.5c1.91-1.16,72,24,72,24-10,10-60,58-154,60v-63S239.5,362.5,277.5,339.5Z"/><path class="cls-2" d="M343,274.87c-1.14,1.92,24.66,71.77,24.66,71.77,9.91-10.09,57.45-60.53,58.59-154.54l-63,.58S365.67,236.66,343,274.87Z"/><text class="cls-3" transform="matrix(-0.96, -0.29, 0.29, -0.96, 166.97, 362.86)">Q</text><text class="cls-3" transform="translate(138.54 354.22) rotate(-153.45)">U</text><text class="cls-3" transform="translate(113.86 341.98) rotate(-144.56)">A</text><text class="cls-3" transform="matrix(-0.72, -0.69, 0.69, -0.72, 92.02, 326.32)">L</text><text class="cls-3" transform="translate(75.75 310.42) rotate(-130.56)">I</text><text class="cls-3" transform="matrix(-0.56, -0.83, 0.83, -0.56, 67.82, 301.93)">D</text><text class="cls-3" transform="matrix(-0.43, -0.9, 0.9, -0.43, 52.71, 279.64)">A</text><text class="cls-3" transform="matrix(-0.28, -0.96, 0.96, -0.28, 41.19, 255.5)">D</text><text class="cls-3" transform="translate(33.45 228.75) rotate(-97.41)">E</text><text class="cls-3" transform="translate(30.55 203.18) rotate(-91.48)"> </text><text class="cls-3" transform="translate(29.89 193.52) rotate(-85.59)">E</text><text class="cls-3" transform="translate(32.28 167.91) rotate(-79.71)"> </text><text class="cls-3" transform="translate(34.02 158.16) rotate(-76.03)">I</text><text class="cls-3" transform="translate(36.3 146.77) rotate(-69.36)">N</text><text class="cls-3" transform="translate(46.29 120.15) rotate(-60.07)">C</text><text class="cls-3" transform="translate(60.34 96.02) rotate(-51.64)">L</text><text class="cls-3" transform="translate(73.55 78.8) rotate(-43.38)">U</text><text class="cls-3" transform="matrix(0.82, -0.57, 0.57, 0.82, 94.11, 59.46)">S</text><text class="cls-3" transform="translate(114.53 45.23) rotate(-26.06)">Ã</text><text class="cls-3" transform="translate(137.85 33.55) rotate(-16.96)">O</text><text class="cls-4" transform="matrix(-0.96, -0.29, 0.29, -0.96, 618.97, 362.86)">Q</text><text class="cls-4" transform="translate(590.54 354.22) rotate(-153.45)">U</text><text class="cls-4" transform="translate(565.86 341.98) rotate(-144.56)">A</text><text class="cls-4" transform="matrix(-0.72, -0.69, 0.69, -0.72, 544.02, 326.32)">L</text><text class="cls-4" transform="translate(527.75 310.42) rotate(-130.56)">I</text><text class="cls-4" transform="matrix(-0.56, -0.83, 0.83, -0.56, 519.82, 301.93)">D</text><text class="cls-4" transform="matrix(-0.43, -0.9, 0.9, -0.43, 504.71, 279.64)">A</text><text class="cls-4" transform="matrix(-0.28, -0.96, 0.96, -0.28, 493.19, 255.5)">D</text><text class="cls-4" transform="translate(485.45 228.75) rotate(-97.41)">E</text><text class="cls-4" transform="translate(482.55 203.18) rotate(-91.48)"> </text><text class="cls-4" transform="translate(481.89 193.52) rotate(-85.59)">E</text><text class="cls-4" transform="translate(484.28 167.91) rotate(-79.71)"> </text><text class="cls-4" transform="translate(486.02 158.16) rotate(-76.03)">I</text><text class="cls-4" transform="translate(488.3 146.77) rotate(-69.36)">N</text><text class="cls-4" transform="translate(498.29 120.15) rotate(-60.07)">C</text><text class="cls-4" transform="translate(512.34 96.02) rotate(-51.64)">L</text><text class="cls-4" transform="translate(525.55 78.8) rotate(-43.38)">U</text><text class="cls-4" transform="matrix(0.82, -0.57, 0.57, 0.82, 546.11, 59.46)">S</text><text class="cls-4" transform="translate(566.53 45.23) rotate(-26.06)">Ã</text><text class="cls-4" transform="translate(589.85 33.55) rotate(-16.96)">O</text></svg>