<svg id="Camada_1" data-name="Camada 1" xmlns="http://www.w3.org/2000/svg" viewBox="0 0 431 427"><defs><style>.cls-1{fill:#0070b4;}.cls-2{fill:#00406e;}.cls-3{opacity:0.98;}.cls-4{font-size:29px;fill:#fff;font-family:MuseoSans-100, MuseoSans 100;}</style></defs><title>brand_new</title><path class="cls-1" d="M309,262.18v0a156,156,0,1,0-50,49.52V312l.74-.73h0L334,338ZM175.5,275A96.5,96.5,0,1,1,272,178.5,96.49,96.49,0,0,1,175.5,275Z"/><rect class="cls-2" x="342.5" y="102.5" width="64" height="64"/><path class="cls-2" d="M256,325c1.91-1.16,72,24,72,24-10,10-60,58-154,60V346S218,348,256,325Z"/><path class="cls-2" d="M321.52,260.37c-1.14,1.92,24.66,71.77,24.66,71.77,9.91-10.09,57.45-60.53,58.59-154.54l-63,.58S344.17,222.16,321.52,260.37Z"/><g class="cls-3"><text class="cls-4" transform="translate(78.66 244.02) rotate(-118.36)">Q</text><text class="cls-4" transform="translate(69.43 226.91) rotate(-109.39)">U</text><text class="cls-4" transform="translate(63.61 210.55) rotate(-101.32)">A</text><text class="cls-4" transform="translate(60.33 193.73) rotate(-94.04)">L</text><text class="cls-4" transform="translate(59.52 180.44) rotate(-89.23)">I</text><text class="cls-4" transform="translate(59.25 173.83) rotate(-83.07)">D</text><text class="cls-4" transform="matrix(0.26, -0.97, 0.97, 0.26, 61.38, 156)">A</text><text class="cls-4" transform="translate(65.73 139.5) rotate(-66.44)">D</text><text class="cls-4" transform="translate(73.42 122.21) rotate(-58.55)">E</text><text class="cls-4" transform="translate(81.07 110.04) rotate(-53.56)"> </text><text class="cls-4" transform="matrix(0.66, -0.75, 0.75, 0.66, 84.66, 104.9)">E</text><text class="cls-4" transform="translate(94.29 94.25) rotate(-43.62)"> </text><text class="cls-4" transform="matrix(0.76, -0.65, 0.65, 0.76, 98.93, 89.82)">I</text><text class="cls-4" transform="translate(103.75 85.29) rotate(-34.31)">N</text><text class="cls-4" transform="matrix(0.9, -0.44, 0.44, 0.9, 119.2, 74.81)">C</text><text class="cls-4" transform="translate(133.7 67.81) rotate(-19.02)">L</text><text class="cls-4" transform="translate(145.46 63.5) rotate(-11.82)">U</text><text class="cls-4" transform="translate(163.03 59.92) rotate(-4.26)">S</text><text class="cls-4" transform="translate(176.47 58.76) rotate(3.08)">Ã</text><text class="cls-4" transform="translate(193.01 59.48) rotate(11.56)">O</text></g></svg>