<svg id="Camada_1" data-name="Camada 1" xmlns="http://www.w3.org/2000/svg" viewBox="0 0 431 427"><defs><style>.cls-1{fill:none;stroke:red;stroke-miterlimit:10;stroke-width:3px;}.cls-2,.cls-4{fill:#fff;}.cls-3{fill:#c8c8c8;}.cls-4{font-size:38.54px;font-family:ArialRoundedMTBold, Arial Rounded MT Bold;}</style></defs><title>Prancheta 3</title><rect x="1" width="430" height="427"/><line class="cls-1" x1="64.5" y1="362.5" x2="63.5" y2="362.5"/><path class="cls-2" d="M330.49,276.68v0a156,156,0,1,0-50,49.52v.28l.74-.73h0L355.5,352.5ZM197,289.5A96.5,96.5,0,1,1,293.5,193,96.49,96.49,0,0,1,197,289.5Z"/><rect class="cls-3" x="364" y="117" width="64" height="64"/><path class="cls-3" d="M277.5,339.5c1.91-1.16,72,24,72,24-10,10-60,58-154,60v-63S239.5,362.5,277.5,339.5Z"/><path class="cls-3" d="M343,274.87c-1.14,1.92,24.66,71.77,24.66,71.77,9.91-10.09,57.45-60.53,58.59-154.54l-63,.58S365.67,236.66,343,274.87Z"/><text class="cls-4" transform="translate(167.01 362.88) rotate(-163.07)">Q</text><text class="cls-4" transform="translate(138.61 354.26) rotate(-153.46)">U</text><text class="cls-4" transform="translate(113.9 342) rotate(-144.56)">A</text><text class="cls-4" transform="matrix(-0.72, -0.69, 0.69, -0.72, 92.07, 326.34)">L</text><text class="cls-4" transform="matrix(-0.65, -0.76, 0.76, -0.65, 75.8, 310.45)">I</text><text class="cls-4" transform="matrix(-0.56, -0.83, 0.83, -0.56, 67.87, 301.95)">D</text><text class="cls-4" transform="translate(52.75 279.66) rotate(-115.26)">A</text><text class="cls-4" transform="matrix(-0.28, -0.96, 0.96, -0.28, 41.23, 255.52)">D</text><text class="cls-4" transform="translate(33.49 228.77) rotate(-97.41)">E</text><text class="cls-4" transform="translate(30.59 203.2) rotate(-91.48)"> </text><text class="cls-4" transform="matrix(0.08, -1, 1, 0.08, 29.93, 193.54)">E</text><text class="cls-4" transform="translate(32.32 167.93) rotate(-79.71)"> </text><text class="cls-4" transform="matrix(0.24, -0.97, 0.97, 0.24, 34.06, 158.19)">I</text><text class="cls-4" transform="translate(36.35 146.8) rotate(-69.36)">N</text><text class="cls-4" transform="matrix(0.5, -0.87, 0.87, 0.5, 46.33, 120.17)">C</text><text class="cls-4" transform="matrix(0.62, -0.78, 0.78, 0.62, 60.39, 96.04)">L</text><text class="cls-4" transform="translate(73.6 78.82) rotate(-43.38)">U</text><text class="cls-4" transform="translate(94.15 59.48) rotate(-34.56)">S</text><text class="cls-4" transform="translate(114.57 45.25) rotate(-26.06)">Ã</text><text class="cls-4" transform="translate(137.9 33.57) rotate(-16.96)">O</text></svg>