<svg id="Camada_1" data-name="Camada 1" xmlns="http://www.w3.org/2000/svg" viewBox="0 0 431 427"><defs><style>.cls-1{fill:#c8c8c8;}.cls-2{fill:#fff;}</style></defs><title>Prancheta 5</title><rect x="1.5" y="0.5" width="430" height="427"/><rect class="cls-1" x="343.5" y="101.5" width="64" height="64"/><path class="cls-1" d="M257,324c1.91-1.16,72,24,72,24-10,10-60,58-154,60V345S219,347,257,324Z"/><path class="cls-1" d="M322.52,259.37c-1.14,1.92,24.66,71.77,24.66,71.77,9.91-10.09,57.45-60.53,58.59-154.54l-63,.58S345.17,221.16,322.52,259.37Z"/><path class="cls-2" d="M54.6,143.74c-4.9-1.07-8.19,1.32-9.17,5.8l-.8,3.63,15.13,3.32.8-3.63C61.55,148.35,59.53,144.82,54.6,143.74Z"/><path class="cls-2" d="M46.93,195.28c-1,.49-2.76,1.18-2.76,1.18v0s1.9.2,3,.41l6.75,1.36-.86-6.15Z"/><path class="cls-2" d="M55.21,128.08c-1.09-.05-3-.32-3-.32l0,.06s1.56,1.1,2.41,1.8l5.22,4.49,2.25-5.79Z"/><path class="cls-2" d="M241.13,72.26c3.61,2.09,8.27.77,10.58-3.22a7.56,7.56,0,1,0-13.07-7.57C236.33,65.46,237.52,70.17,241.13,72.26Z"/><path class="cls-2" d="M228.1,52.25c0-1.09.29-3,.29-3l0,0s-1.09,1.58-1.78,2.43L222.12,57l5.81,2.18Z"/><path class="cls-2" d="M68.61,230.43l-1,3.21L65.26,233l1-3.18a8.18,8.18,0,0,0-4.94.86,7.56,7.56,0,1,0,6.95,13.41c4.07-2.11,5.63-6.64,3.69-10.4A7.41,7.41,0,0,0,68.61,230.43Z"/><path class="cls-2" d="M71.39,106.26c-4.32-2.55-8.19-1.29-10.52,2.66L59,112.12,72.34,120l1.88-3.2C76.56,112.8,75.74,108.82,71.39,106.26Z"/><path class="cls-2" d="M310.49,262.18v0a156,156,0,1,0-50,49.52V312l.74-.73h0L335.5,338ZM250.42,56.23a10.33,10.33,0,0,1,3.85,14.3A10.51,10.51,0,1,1,236.08,60,10.35,10.35,0,0,1,250.42,56.23Zm-21-15.09c1.82.69,1.56,2.69,2.73,3.13.81.31,1.42-.58,1.72-1.36l1.9.71c-.85,2.26-2.22,3.1-4.07,2.41s-1.56-2.7-2.72-3.13c-.82-.31-1.42.55-1.72,1.36l-1.91-.71C226.16,41.27,227.52,40.45,229.37,41.14Zm-8.79,17.77-4,4.8-2.77-1.05,14.1-16.57,2.83,1.06-.32,21.76-2.79-1,.14-6.24Zm-18.26-3.42a8.14,8.14,0,0,0,4.61,3.31c1.86.42,3.69-.27,4.12-2.16,1-4.33-8.91-5.59-7.51-11.73.7-3.11,4-5,7.71-4.11a8.37,8.37,0,0,1,5.2,3.29l-1.8,2a7.2,7.2,0,0,0-4-2.72c-2.12-.48-3.92.51-4.28,2.09-.94,4.13,9,5.23,7.51,11.71-.7,3.08-3.65,5.08-7.61,4.19a9.61,9.61,0,0,1-6-4.14Zm-21.17-4.93,1-13.19,2.87.22-1,13.18c-.23,3.13,1.66,5.1,4.78,5.33s5.34-1.44,5.58-4.62l1-13.13,2.86.21-1,13.19c-.34,4.54-3.83,7.34-8.6,7S180.81,55.1,181.15,50.56Zm-13-12.49L169.42,56l9.14-.64.17,2.48-12,.85-1.44-20.43Zm-16.78,2.11a10.57,10.57,0,0,1,7.86,1l-.93,2.4a9.32,9.32,0,0,0-6.25-.91c-4.48,1-6.65,5-5.72,9.27s4.7,7.25,9.15,6.28a9.3,9.3,0,0,0,5.61-4L163,56A11,11,0,0,1,156,60.86c-6,1.31-11.23-2.35-12.52-8.22A10.23,10.23,0,0,1,151.37,40.18Zm-29.47,10L135.38,59c1.12.73,2.71,2.08,2.71,2.08l0,0s-.88-1.61-1.31-2.66l-5.06-12.3,2.65-1.1,7.79,18.94L139.6,65l-13.49-8.81c-1.13-.76-2.72-2.12-2.72-2.12l0,0s.88,1.61,1.32,2.68l5.05,12.28-2.66,1.1-7.78-18.94Zm-9.26,4.75,10,17.85-2.5,1.4-10-17.85ZM96.82,64.82l1.57,1.94-7,5.68,4,5,5.7-4.62,1.57,1.94L97,79.36l4.14,5.11,7.39-6,1.57,1.94-9.62,7.79L87.57,72.3Zm-20.94,19,1.93,1.58-5.73,7,5,4.07,4.65-5.67,1.93,1.59L79,98l5.09,4.18,6-7.35L92,96.4,84.15,106,68.33,93ZM50.14,125.37l21.75.54-1.08,2.78-6.23-.21-2.79,7.19,4.75,4-1.07,2.76L49.05,128.18ZM43,148.81c1.35-6.12,5.89-9.35,12.2-8s9.15,6.22,7.81,12.35l-1.46,6.63-20-4.4ZM40.8,163l20.38,1.94-.27,2.86-20.38-1.94Zm-.75,16.86,18,0,0-9.17H60.5l0,12-20.47,0Zm1.13,15.54,19.25-10.14.42,3-5.55,2.86,1.07,7.64,6.12,1.19.41,2.93-21.3-4.45Zm6.41,27.71,12.65-3.85c3-.91,4.16-3.39,3.24-6.38s-3.26-4.47-6.31-3.54l-12.6,3.84-.84-2.75,12.65-3.85c4.36-1.33,8.23.92,9.62,5.5s-.56,8.6-4.92,9.92l-12.65,3.86ZM69.66,246.7A10.51,10.51,0,0,1,60,228a10.66,10.66,0,0,1,7.1-1l.94-3.23,2.37.67-1,3.21a10.16,10.16,0,0,1,5,4.75A10.49,10.49,0,0,1,69.66,246.7Zm6.81-128.84L73,123.71,55.38,113.33l3.45-5.85c3.17-5.4,8.49-7,14.06-3.77S79.65,112.46,76.47,117.86ZM177,275a96.5,96.5,0,1,1,96.5-96.5A96.49,96.49,0,0,1,177,275Z"/></svg>