<svg id="Camada_1" data-name="Camada 1" xmlns="http://www.w3.org/2000/svg" viewBox="0 0 431 427"><defs><style>.cls-1{fill:#0070b4;}.cls-2{fill:#00406e;}.cls-3{opacity:0.98;}.cls-4{font-size:29px;fill:#fff;font-family:MuseoSans-100, Museo Sans;}</style></defs><title>Prancheta 4</title><path class="cls-1" d="M309,262.18v0a156,156,0,1,0-50,49.52V312l.74-.73h0L334,338ZM175.5,275A96.5,96.5,0,1,1,272,178.5,96.49,96.49,0,0,1,175.5,275Z"/><rect class="cls-2" x="342.5" y="102.5" width="64" height="64"/><path class="cls-2" d="M256,325c1.91-1.16,72,24,72,24-10,10-60,58-154,60V346S218,348,256,325Z"/><path class="cls-2" d="M321.52,260.37c-1.14,1.92,24.66,71.77,24.66,71.77,9.91-10.09,57.45-60.53,58.59-154.54l-63,.58S344.17,222.16,321.52,260.37Z"/><g class="cls-3"><text class="cls-4" transform="translate(78.49 244.2) rotate(-117.36)">Q</text><text class="cls-4" transform="translate(67.69 223.09) rotate(-106.89)">U</text><text class="cls-4" transform="translate(61.97 204.14) rotate(-98.18)">A</text><text class="cls-4" transform="translate(59.6 187.15) rotate(-90.59)">L</text><text class="cls-4" transform="translate(59.6 172.76) rotate(-85.38)">I</text><text class="cls-4" transform="translate(59.73 165.71) rotate(-78.66)">D</text><text class="cls-4" transform="translate(63.8 145.75) rotate(-69.96)">A</text><text class="cls-4" transform="translate(69.45 129.66) rotate(-60.87)">D</text><text class="cls-4" transform="translate(79.79 111.42) rotate(-51.94)">E</text><text class="cls-4" transform="matrix(0.69, -0.72, 0.72, 0.69, 90.17, 98.52)"> </text><text class="cls-4" transform="translate(95.61 92.57) rotate(-40.1)">E</text><text class="cls-4" transform="matrix(0.83, -0.56, 0.56, 0.83, 108.42, 82.07)"> </text><text class="cls-4" transform="matrix(0.86, -0.51, 0.51, 0.86, 115.24, 77.45)">I</text><text class="cls-4" transform="translate(121.09 73.5) rotate(-23.67)">N</text><text class="cls-4" transform="translate(140.48 64.96) rotate(-13.68)">C</text><text class="cls-4" transform="matrix(1, -0.1, 0.1, 1, 160.17, 60.33)">L</text><text class="cls-4" transform="matrix(1, 0.04, -0.04, 1, 173.4, 58.74)">U</text><text class="cls-4" transform="translate(193.4 59.7) rotate(10.68)">S</text><text class="cls-4" transform="translate(208.2 62.4) rotate(18.32)">Ã</text><text class="cls-4" transform="matrix(0.89, 0.46, -0.46, 0.89, 223.89, 67.21)">O</text></g></svg>